<svg width="16" height="16" viewBox="0 0 16 16" fill="none" xmlns="http://www.w3.org/2000/svg">
<path d="M7.42857 0H8.57143V2.85714H7.42857V0ZM11.2503 3.94286L13.2537 1.93943L14.0617 2.74743L12.0583 4.75086L11.2503 3.94286ZM13.1429 7.42857H16V8.57143H13.1429V7.42857ZM11.2503 12.0571L12.0583 11.2497L14.0617 13.2531L13.2537 14.0611L11.2503 12.0571ZM7.42857 13.1429H8.57143V16H7.42857V13.1429ZM1.93943 13.2526L3.94286 11.2491L4.75086 12.0571L2.748 14.0606L1.93943 13.2526ZM0 7.42857H2.85714V8.57143H0V7.42857ZM1.94 2.74743L2.748 1.93943L4.75143 3.94286L3.94286 4.75086L1.94 2.74743ZM8 4.57143C7.32189 4.57143 6.65901 4.77251 6.09519 5.14925C5.53136 5.52598 5.09191 6.06145 4.83241 6.68794C4.57291 7.31443 4.50502 8.0038 4.63731 8.66888C4.7696 9.33396 5.09614 9.94487 5.57563 10.4244C6.05513 10.9039 6.66604 11.2304 7.33112 11.3627C7.9962 11.495 8.68557 11.4271 9.31206 11.1676C9.93855 10.9081 10.474 10.4686 10.8508 9.90481C11.2275 9.34099 11.4286 8.67811 11.4286 8C11.4286 7.09069 11.0673 6.21862 10.4244 5.57563C9.78139 4.93265 8.90931 4.57143 8 4.57143Z" fill="#F2F2F2"/>
</svg>
