<svg width="123" height="32" viewBox="0 0 123 32" fill="none" xmlns="http://www.w3.org/2000/svg">
<path d="M46.1696 29.6279C45.8289 29.6279 45.5556 29.7371 45.3575 29.9517C45.1614 30.1643 45.0624 30.4543 45.0624 30.8179C45.0624 31.1755 45.1634 31.4656 45.3615 31.6781C45.5615 31.8927 45.8329 32.002 46.1696 32.002C46.4944 32.002 46.7638 31.8927 46.9658 31.6801C47.1678 31.4676 47.2688 31.1775 47.2688 30.8199C47.2688 30.4583 47.1718 30.1663 46.9777 29.9537C46.7816 29.7371 46.5102 29.6279 46.1696 29.6279Z" fill="white"/>
<path d="M43.6383 29.6279C43.2977 29.6279 43.0243 29.7371 42.8263 29.9517C42.6302 30.1643 42.5311 30.4543 42.5311 30.8179C42.5311 31.1755 42.6321 31.4656 42.8302 31.6781C43.0303 31.8927 43.3016 32.002 43.6383 32.002C43.9632 32.002 44.2306 31.8967 44.4306 31.6881C44.6287 31.4795 44.7297 31.1874 44.7297 30.8199C44.7297 30.4524 44.6326 30.1603 44.4385 29.9497C44.2424 29.7351 43.9731 29.6279 43.6383 29.6279Z" fill="white"/>
<path d="M52.0542 20.187H51.6957C52.0344 19.7281 52.5355 19.2711 53.1911 18.8261C53.9299 18.3235 54.734 17.9381 55.5838 17.6798C55.6135 17.6718 55.6986 17.644 55.6986 17.644C55.6986 17.644 55.3421 15.6792 54.7994 15.4368C54.7756 15.4269 54.7261 15.4626 54.7004 15.4725C53.4268 15.9275 52.2939 16.5911 51.3293 17.4454C50.4419 18.2301 49.7328 19.142 49.2139 20.1552C49.1228 20.332 49.0812 20.5287 49.0792 20.7254V20.8863C49.0753 21.6115 49.6596 22.2015 50.3825 22.2015H51.7115C52.4384 22.2015 53.0069 22.3565 53.3971 22.6605C53.7853 22.9625 53.9735 23.3876 53.9735 23.9598V25.5551C53.9735 25.9386 53.6625 26.2505 53.2802 26.2505H46.9797C46.5935 26.2505 46.2785 25.9366 46.2785 25.5472V21.4267C46.2785 20.9956 45.9299 20.646 45.5001 20.646H44.6207C44.1909 20.646 43.8423 20.9956 43.8423 21.4267V25.9545C43.8423 26.1174 43.7116 26.2485 43.5492 26.2485H40.3662C40.184 26.2485 40.0374 26.1015 40.0374 25.9187V17.4732C40.0374 17.042 39.6888 16.6924 39.259 16.6924H38.3796C37.9498 16.6924 37.6012 17.042 37.6012 17.4732V27.2061C37.6012 27.7902 38.0746 28.265 38.6569 28.265H54.9341C55.7501 28.265 56.4137 27.6014 56.4137 26.7809V23.6737C56.4117 21.3612 54.946 20.187 52.0542 20.187Z" fill="white"/>
<path d="M72.6434 16.3328L72.4156 16.3705C72.3185 16.3209 72.2373 16.2493 72.166 16.156C72.0927 16.0586 72.0571 15.9454 72.0571 15.8142C72.0571 15.6195 72.1105 15.4745 72.2195 15.3672C72.3304 15.26 72.475 15.2083 72.6592 15.2083C72.9266 15.2083 73.1821 15.2679 73.4178 15.3871L73.5248 15.4407L73.9031 14.4812L73.8179 14.4355C73.4772 14.2467 73.0494 14.1514 72.5423 14.1514C72.0194 14.1514 71.5956 14.2805 71.2806 14.5328C70.9598 14.7911 70.7954 15.1566 70.7954 15.6176C70.7954 15.8738 70.8667 16.1003 71.0053 16.2911C71.0826 16.3964 71.1717 16.4897 71.2727 16.5692L70.6132 16.6765V17.6718L70.7518 17.6341C70.8211 17.6142 71.1143 17.5665 72.1224 17.4473C72.9325 17.35 73.5208 17.2904 73.8734 17.2645L73.9763 17.2566V16.1659L73.8575 16.1758C73.5584 16.2017 73.1504 16.2553 72.6434 16.3328Z" fill="white"/>
<path d="M70.9597 24.2101H68.8345C68.3532 24.2101 67.961 23.8187 67.961 23.3339V15.258C67.961 14.9242 67.6916 14.654 67.3589 14.654H66.1269C65.7941 14.654 65.5248 14.9242 65.5248 15.258V25.5332C65.5248 26.2564 65.3524 26.8226 65.0098 27.216C64.6711 27.6054 64.1304 27.8021 63.4015 27.8021H62.9578C62.3893 27.8021 61.9457 27.6034 61.601 27.1961C61.2564 26.7888 61.0821 26.2286 61.0821 25.5352C61.0821 25.0366 61.1277 24.4922 61.2188 23.9141C61.3178 23.2843 61.4564 22.6744 61.6288 22.1062C61.3039 21.6691 59.9155 21.8201 59.45 22.1042C59.4362 22.1121 59.4263 22.1499 59.4203 22.1638C59.1787 22.6386 58.9885 23.177 58.8519 23.769C58.7152 24.3611 58.6459 24.9491 58.6459 25.5193C58.6459 26.3557 58.8123 27.1067 59.141 27.7544C59.4718 28.406 59.9591 28.9186 60.5889 29.2782C61.2168 29.6358 61.9635 29.8186 62.8073 29.8186H63.4629C66.218 29.8186 67.7253 28.6107 67.9432 26.2286H72.9384C73.4336 26.2286 73.8357 25.8253 73.8357 25.3286V19.2115C73.8357 18.8777 73.5663 18.6076 73.2335 18.6076H72.0015C71.6688 18.6076 71.3994 18.8777 71.3994 19.2115V23.773C71.3935 24.0154 71.1994 24.2101 70.9597 24.2101Z" fill="white"/>
<path d="M80.776 24.2101H80.1838C79.4232 24.2101 78.8053 23.5923 78.8053 22.8274V15.8739C78.8053 15.1984 78.2586 14.652 77.5871 14.652C76.9137 14.652 76.369 15.2004 76.369 15.8739V24.8419C76.369 25.6048 76.985 26.2246 77.7476 26.2246H83.2142C83.9827 26.2246 84.6047 25.6008 84.6047 24.83V19.8294C84.6047 19.1539 84.058 18.6076 83.3866 18.6076C82.7131 18.6076 82.1684 19.1559 82.1684 19.8294V22.8154C82.1665 23.5863 81.5445 24.2101 80.776 24.2101Z" fill="white"/>
<path d="M83.2578 27.5895C82.9112 27.5895 82.6359 27.6988 82.4398 27.9133C82.2437 28.1259 82.1447 28.416 82.1447 28.7796C82.1447 29.1372 82.2457 29.4272 82.4437 29.6398C82.6438 29.8544 82.9171 29.9636 83.2578 29.9636C83.5787 29.9636 83.8441 29.8544 84.0461 29.6418C84.2481 29.4292 84.3491 29.1391 84.3491 28.7815C84.3491 28.414 84.2501 28.1219 84.054 27.9114C83.8579 27.6968 83.5886 27.5895 83.2578 27.5895Z" fill="white"/>
<path d="M103.778 20.336C103.463 19.7877 103.013 19.3566 102.443 19.0566C101.874 18.7586 101.234 18.6056 100.541 18.6056C100.125 18.6056 99.6379 18.6811 99.0913 18.8281C98.5446 18.9751 98.0197 19.1937 97.5345 19.4738L97.5087 19.4877L97.4949 19.5115C97.277 19.8771 97.0928 20.3201 96.9462 20.8287C96.7996 21.3373 96.7244 21.8201 96.7244 22.2611C96.7244 22.9684 96.8412 23.624 97.071 24.2081H93.9435V20.0261C93.9435 19.2433 93.3117 18.6076 92.5293 18.6076H91.5707C90.6199 18.6076 89.7682 18.7705 89.0393 19.0903C88.3045 19.4142 87.7301 19.887 87.3261 20.4989C86.924 21.1108 86.718 21.828 86.718 22.6346C86.718 23.773 87.0171 24.6651 87.6073 25.2869C88.1976 25.9107 89.0492 26.2266 90.1386 26.2266H91.5053C91.4993 26.7173 91.3548 27.1067 91.0794 27.3849C90.7962 27.671 90.3842 27.816 89.8554 27.816C89.4791 27.816 89.1107 27.7743 88.7601 27.6908C88.4115 27.6074 88.0351 27.4624 87.643 27.2577C87.643 27.2577 87.5717 27.2001 87.5459 27.2081C87.0567 27.361 86.5793 29.0239 86.5793 29.0239C86.5793 29.0239 86.6467 29.0637 86.6685 29.0776C87.132 29.3557 87.6232 29.5504 88.1243 29.6557C88.6214 29.761 89.2176 29.8146 89.897 29.8146C91.1706 29.8146 92.1728 29.4888 92.8759 28.8451C93.5593 28.2193 93.9178 27.3392 93.9395 26.2246H100.072C100.842 26.2246 101.557 26.0558 102.195 25.724C102.835 25.3902 103.344 24.9174 103.704 24.3194C104.065 23.7214 104.247 23.024 104.247 22.2492C104.251 21.528 104.092 20.8844 103.778 20.336ZM101.797 22.136C101.817 22.6684 101.642 23.1889 101.28 23.5783C100.89 23.9975 100.389 24.2101 99.7905 24.2101C99.4934 24.2101 99.2359 24.0055 99.1606 23.7174C99.0517 23.3002 98.9982 22.9187 98.9982 22.577C98.9982 22.3803 99.0061 22.1876 99.0239 21.9969C99.0933 21.24 99.7251 20.6281 100.484 20.6221C100.488 20.6221 100.492 20.6221 100.496 20.6221C100.892 20.6221 101.199 20.7632 101.436 21.0532C101.658 21.3234 101.779 21.687 101.797 22.136ZM91.5053 20.9936V24.2101H90.5902C90.1267 24.2101 89.7801 24.081 89.5603 23.8247C89.3365 23.5644 89.2236 23.1432 89.2236 22.575C89.2236 21.9512 89.3919 21.4645 89.7266 21.1267C90.0594 20.791 90.5348 20.6201 91.1369 20.6201C91.3409 20.6221 91.5053 20.789 91.5053 20.9936Z" fill="white"/>
<path d="M45.4921 7.8237V11.4177C45.4921 12.117 44.9276 12.6832 44.2304 12.6832C43.5332 12.6832 42.9688 12.117 42.9688 11.4177V7.75814C42.9688 7.04292 42.8598 6.51843 42.6439 6.18268C42.426 5.84692 42.0755 5.68004 41.5922 5.68004C41.1069 5.68004 40.6791 5.86083 40.3067 6.2244C39.9344 6.58797 39.7462 7.12041 39.7462 7.8237V11.4256C39.7462 12.119 39.1857 12.6832 38.4924 12.6832C37.8012 12.6832 37.2386 12.121 37.2386 11.4256V4.69066C37.2386 4.12643 37.6942 3.66948 38.2567 3.66948H38.7242C39.2867 3.66948 39.7422 4.12643 39.7422 4.69066C40.4335 3.90789 41.2238 3.51849 42.1151 3.51849C42.6835 3.51849 43.1985 3.68538 43.66 4.02113C44.1215 4.35689 44.4701 4.76416 44.7038 5.24495C45.0485 4.6986 45.5139 4.27345 46.0982 3.97146C46.6825 3.66948 47.2708 3.51849 47.861 3.51849C48.9187 3.51849 49.7704 3.83438 50.4161 4.46417C51.0618 5.09594 51.3847 6.00785 51.3847 7.20385V11.4177C51.3847 12.117 50.8202 12.6832 50.123 12.6832C49.4258 12.6832 48.8613 12.117 48.8613 11.4177V7.75814C48.8613 6.3734 48.3542 5.68004 47.3421 5.68004C46.841 5.68004 46.4072 5.86083 46.0388 6.2244C45.6763 6.58797 45.4921 7.12041 45.4921 7.8237Z" fill="white"/>
<path d="M62.6488 8.17734C62.6488 9.4846 62.1972 10.5852 61.296 11.4793C60.3948 12.3733 59.2599 12.8203 57.8971 12.8203C56.5325 12.8203 55.3995 12.3733 54.4983 11.4793C53.5971 10.5852 53.1455 9.4846 53.1455 8.17734C53.1455 6.87008 53.5971 5.76745 54.4983 4.86747C55.3995 3.96948 56.5325 3.51849 57.8971 3.51849C59.2618 3.51849 60.3948 3.96749 61.296 4.86747C62.1972 5.76745 62.6488 6.87008 62.6488 8.17734ZM55.6669 8.17734C55.6669 8.91441 55.8749 9.5144 56.2928 9.97929C56.7107 10.4422 57.2455 10.6746 57.8971 10.6746C58.5488 10.6746 59.0836 10.4422 59.5015 9.97929C59.9194 9.51638 60.1274 8.9164 60.1274 8.17734C60.1274 7.44027 59.9194 6.83631 59.5015 6.36744C59.0836 5.89858 58.5488 5.66414 57.8971 5.66414C57.2455 5.66414 56.7107 5.89858 56.2928 6.36744C55.8749 6.83631 55.6669 7.44027 55.6669 8.17734Z" fill="white"/>
<path d="M69.6802 3.51845C70.7716 3.51845 71.7243 3.94559 72.5363 4.79988C73.3484 5.65417 73.7564 6.75083 73.7564 8.09187C73.7564 9.4329 73.3385 10.5554 72.5027 11.4593C71.6668 12.3653 70.7181 12.8163 69.6545 12.8163C68.5908 12.8163 67.7074 12.3752 67.0063 11.4931C67.0063 12.1507 66.4755 12.6832 65.8199 12.6832H65.6872C65.0316 12.6832 64.5007 12.1507 64.5007 11.4931V1.5079C64.5007 0.814532 65.0613 0.250305 65.7545 0.250305C66.4458 0.250305 67.0083 0.812545 67.0083 1.5079V4.67472C67.6975 3.90387 68.5888 3.51845 69.6802 3.51845ZM66.9746 8.18524C66.9746 8.91635 67.1786 9.51435 67.5846 9.97726C67.9907 10.4402 68.4839 10.6726 69.0622 10.6726C69.6406 10.6726 70.1476 10.4402 70.5814 9.97726C71.0152 9.51435 71.2331 8.91834 71.2331 8.19319C71.2331 7.46804 71.0211 6.85812 70.5973 6.3674C70.1734 5.87668 69.6683 5.63033 69.0781 5.63033C68.4878 5.63033 67.9887 5.87271 67.5827 6.35945C67.1766 6.84421 66.9746 7.45413 66.9746 8.18524Z" fill="white"/>
<path d="M75.8361 2.52114C75.5529 2.23704 75.4103 1.88738 75.4103 1.47414C75.4103 1.06091 75.5529 0.711244 75.8361 0.427143C76.1194 0.143043 76.468 0 76.8799 0C77.2919 0 77.6405 0.143043 77.9238 0.427143C78.207 0.711244 78.3496 1.06091 78.3496 1.47414C78.3496 1.88738 78.207 2.23704 77.9238 2.52114C77.6405 2.80524 77.2919 2.94828 76.8799 2.94828C76.468 2.94828 76.1194 2.80723 75.8361 2.52114ZM76.8799 12.6832C76.1887 12.6832 75.6262 12.1209 75.6262 11.4256V4.92705C75.6262 4.23369 76.1867 3.66946 76.8799 3.66946C77.5712 3.66946 78.1337 4.2317 78.1337 4.92705V11.4276C78.1317 12.1209 77.5712 12.6832 76.8799 12.6832Z" fill="white"/>
<path d="M81.7584 12.6832C81.0671 12.6832 80.5046 12.1209 80.5046 11.4256V1.50789C80.5046 0.814532 81.0652 0.250305 81.7584 0.250305C82.4497 0.250305 83.0122 0.812545 83.0122 1.50789V11.4276C83.0102 12.1209 82.4497 12.6832 81.7584 12.6832Z" fill="white"/>
<path d="M92.4124 10.5594C92.8541 11.0382 92.7352 11.8011 92.1747 12.1309C91.4003 12.5898 90.5407 12.8183 89.5998 12.8183C88.2351 12.8183 87.1081 12.3971 86.2168 11.5527C85.3255 10.7104 84.8799 9.57794 84.8799 8.15943C84.8799 6.74091 85.3335 5.61246 86.2406 4.77407C87.1478 3.93568 88.2193 3.51648 89.4552 3.51648C90.6912 3.51648 91.7409 3.88998 92.6045 4.63897C93.4681 5.38796 93.8999 6.41509 93.8999 7.72235C93.8999 8.46339 93.3017 9.06338 92.5629 9.06338H87.3518C87.429 9.55609 87.6865 9.9574 88.1203 10.2693C88.554 10.5832 89.0452 10.7382 89.5899 10.7382C90.1762 10.7382 90.6932 10.6071 91.1408 10.3428C91.5567 10.1024 92.0876 10.2057 92.4124 10.5594ZM90.7605 6.03166C90.4159 5.7416 89.994 5.59657 89.4988 5.59657C89.0036 5.59657 88.5501 5.74756 88.1381 6.04954C87.7261 6.35152 87.4864 6.7588 87.4191 7.27335H91.3607C91.3072 6.73495 91.1051 6.32172 90.7605 6.03166Z" fill="white"/>
<path d="M96.9581 12.6832C96.2669 12.6832 95.7043 12.1209 95.7043 11.4256V1.50789C95.7043 0.814532 96.2649 0.250305 96.9581 0.250305C97.6494 0.250305 98.2119 0.812545 98.2119 1.50789V6.6356L100.66 4.01711C100.878 3.78467 101.181 3.65355 101.498 3.65355C102.506 3.65355 103.025 4.86147 102.336 5.59655L100.733 7.30711L103.015 10.756C103.562 11.5825 102.971 12.6851 101.983 12.6851C101.569 12.6851 101.181 12.4765 100.951 12.1309L99.0299 9.23422L98.2119 10.0885V11.4295C98.2119 12.1209 97.6494 12.6832 96.9581 12.6832Z" fill="white"/>
<path d="M107.198 16.2354C106.669 16.2354 106.16 16.1063 105.667 15.848C105.101 15.552 104.914 14.8229 105.249 14.2765C105.527 13.8216 106.093 13.613 106.588 13.8116C106.772 13.8851 106.959 13.9229 107.149 13.9229C107.382 13.9229 107.582 13.8077 107.751 13.5792C107.917 13.3507 108 13.1064 108 12.8501C108 12.6196 107.065 10.1263 105.198 5.37208C104.877 4.55554 105.477 3.66947 106.352 3.66947C106.863 3.66947 107.323 3.98337 107.509 4.46018L109.389 9.28193L111.269 4.46018C111.455 3.98337 111.914 3.66748 112.425 3.66748C113.301 3.66748 113.903 4.55356 113.58 5.37009L110.074 14.2904C109.829 14.9043 109.448 15.3811 108.929 15.7229C108.408 16.0646 107.832 16.2354 107.198 16.2354Z" fill="white"/>
<path d="M121.915 12.6832H121.73C121.13 12.6832 120.645 12.1964 120.645 11.5945C119.999 12.409 119.199 12.8183 118.248 12.8183C117.296 12.8183 116.497 12.5421 115.852 11.9898C115.206 11.4375 114.883 10.7004 114.883 9.7786C114.883 8.85676 115.218 8.16737 115.885 7.70844C116.553 7.2515 117.466 7.02104 118.625 7.02104H120.496V6.97137C120.496 6.0098 119.989 5.531 118.977 5.531C118.543 5.531 118.084 5.61842 117.599 5.79126C117.42 5.85484 117.252 5.92437 117.094 5.99987C116.652 6.21046 116.123 6.07933 115.846 5.67404C115.505 5.17935 115.675 4.49394 116.21 4.22573C117.147 3.75687 118.175 3.52045 119.294 3.52045C120.385 3.52045 121.277 3.79461 121.966 4.34096C122.657 4.88731 123.002 5.75351 123.002 6.93759V11.5964C123 12.1964 122.515 12.6832 121.915 12.6832ZM120.479 9.24814V8.81305H118.908C117.906 8.81305 117.405 9.12695 117.405 9.75078C117.405 10.0746 117.523 10.323 117.763 10.4958C118.003 10.6686 118.345 10.7561 118.791 10.7561C119.237 10.7561 119.629 10.619 119.97 10.3448C120.308 10.0726 120.479 9.70707 120.479 9.24814Z" fill="white"/>
<path d="M14.4728 1.3927C6.48077 1.3927 0 7.89124 0 15.9096C0 23.928 6.48077 30.4265 14.4728 30.4265C22.4668 30.4265 28.9456 23.926 28.9456 15.9096C28.9456 7.89124 22.4668 1.3927 14.4728 1.3927ZM17.9826 21.9711C17.9826 22.4062 17.626 22.7638 17.1923 22.7638H11.3156C10.8818 22.7638 10.5253 22.4062 10.5253 21.9711V10.2872C10.5253 9.85213 10.8799 9.49452 11.3156 9.49452H17.1923C17.626 9.49452 17.9826 9.85213 17.9826 10.2872V21.9711V21.9711Z" fill="white"/>
</svg>
