<svg width="12" height="12" viewBox="0 0 12 12" fill="none" xmlns="http://www.w3.org/2000/svg">
<path d="M11.9745 6.52667C11.8697 7.66147 11.4438 8.74294 10.7467 9.64453C10.0496 10.5461 9.1102 11.2305 8.03835 11.6177C6.96649 12.0049 5.80653 12.0787 4.69421 11.8307C3.58189 11.5827 2.56321 11.023 1.75736 10.2172C0.951515 9.41134 0.391837 8.39266 0.143815 7.28033C-0.104206 6.16801 -0.0303124 5.00806 0.35685 3.9362C0.744013 2.86434 1.42843 1.92491 2.33002 1.22784C3.23161 0.53076 4.31307 0.10487 5.44788 0C4.78349 0.898845 4.46378 2.0063 4.5469 3.12094C4.63002 4.23559 5.11045 5.28337 5.90081 6.07373C6.69117 6.86409 7.73896 7.34452 8.8536 7.42765C9.96824 7.51077 11.0757 7.19106 11.9745 6.52667Z" fill="black"/>
</svg>
